# xmcd
#
# Track frame offsets:
#	150
#	14446
#	27059
#	41698
#	54778
#	65342
#	78010
#	90705
#	101130
#	114924
#	126197
#	136770
#	149581
#	162785
#	175227
#	186780
#	199945
#	212341
#	226652
#	240454
#
# Disc length: 3359 seconds
#
# Revision: 1
# Processed by: cddbd v1.5.2PL0 Copyright (c) Steve Scherf et al.
# Submitted via: audiograbber 1.83.01
#
DISCID=fc0d1d14
DTITLE=Dean Martin - The Golden Years of Dean Martin
DYEAR=2006
DGENRE=Big Band
TTITLE0=That's Amore
TTITLE1=Bella Bimba (Ma Come Bali)
TTITLE2=Come Back To Sorrento
TTITLE3=Santa Lucia
TTITLE4=Mambo Italiano
TTITLE5=How D'YaLike Your Eggs In The Morning?
TTITLE6=Under The Bridges Of Paris
TTITLE7=Who's Sorry Now?
TTITLE8=Let Me Go Lover
TTITLE9=Open Up The Doghouse (Two Cats Are Comin' In)
TTITLE10=Long, Long Ago 
TTITLE11=All Of Me
TTITLE12=I Got The Sun In The Morning
TTITLE13=The Sweetheart Of Sigma Chi
TTITLE14=Oh, Marie
TTITLE15=Walkin' My Baby Back Home
TTITLE16=The Night Is Young And You're So Beautiful
TTITLE17=The Money Song
TTITLE18=That Certain Party
TTITLE19=Powder Your Face With Sunshine (Smile! Smile! Smile!)
EXTD=
EXTT0=
EXTT1=
EXTT2=
EXTT3=
EXTT4=
EXTT5=
EXTT6=
EXTT7=
EXTT8=
EXTT9=
EXTT10=
EXTT11=
EXTT12=
EXTT13=
EXTT14=
EXTT15=
EXTT16=
EXTT17=
EXTT18=
EXTT19=
PLAYORDER=
